# Blender 4.1.0
# www.blender.org
mtllib ship.mtl
o Cube
v -2.130508 -0.933763 1.133521
v -2.130508 0.933763 1.133521
v -2.130508 -0.933763 -1.133521
v -2.108216 1.023599 -1.473889
v 3.710060 -1.735619 2.106916
v 3.710060 1.735619 2.106916
v 3.710060 -1.735619 -2.106916
v 3.710060 1.735619 -2.106916
v -2.130508 -1.735619 -2.106916
v -2.130508 -1.735619 2.106916
v -2.130508 1.735619 2.106916
v -2.130508 1.735619 -2.106916
v -2.130508 -0.933763 -0.846721
v -2.130508 -0.933763 0.846721
v -2.130508 -0.311254 1.133521
v -2.130508 0.311254 1.133521
v -2.130508 0.933763 0.377840
v -2.108216 1.023599 -1.032338
v -2.108216 0.285871 -1.473889
v -2.108216 -0.451858 -1.473889
v -2.130508 -0.311254 0.377840
v -2.130508 0.311254 0.377840
v -2.108216 -0.451858 -1.032338
v -2.108216 0.285871 -1.032338
v -1.002759 -1.735619 -2.106916
v -1.002759 -1.735619 2.106916
v -1.002759 -0.933763 0.846721
v -1.002759 -0.933763 1.133521
v -1.002759 -0.933763 -1.133521
v -1.002759 -0.933763 -0.846721
v -0.872663 -1.528258 -1.289638
v -0.872663 -1.528258 1.289638
v -0.872663 -1.037444 0.231275
v -0.872663 -1.037444 0.693825
v -0.872663 -1.037444 -0.693825
v -0.872663 -1.037444 -0.231275
v -2.023802 0.786807 -1.103201
v -2.023802 0.786807 -1.403026
v -2.023802 0.285871 -1.403026
v -2.023802 -0.215066 -1.403026
v -2.023802 0.285871 -1.103201
v -2.023802 -0.215066 -1.103201
v -2.130508 -0.933763 -0.282240
v -2.130508 -0.933763 0.282240
v -1.002759 -0.933763 -0.282240
v -1.002759 -0.933763 0.282240
v -1.898007 -0.933763 -0.793871
v -1.235260 -0.933763 -0.793871
v -1.270035 -0.933763 0.846721
v -1.863232 -0.933763 0.846721
v -1.898007 -0.933763 -0.335091
v -1.235260 -0.933763 -0.335091
v -1.863232 -0.933763 0.282240
v -1.270035 -0.933763 0.282240
v -1.270035 -0.840705 0.846721
v -1.863232 -0.840705 0.846721
v -1.863232 -0.840705 0.282240
v -1.270035 -0.840705 0.282240
vn 0.6430 -0.0000 0.7659
vn -0.0000 -0.0000 1.0000
vn -1.0000 -0.0000 -0.0000
vn -0.0000 -0.0000 -1.0000
vn -0.0000 1.0000 -0.0000
vn -0.0000 -1.0000 -0.0000
vn -0.0000 0.7718 0.6358
vn 1.0000 -0.0000 -0.0000
vn 0.9979 0.0609 0.0197
vn 0.9994 -0.0000 -0.0352
vn 0.9999 -0.0000 0.0158
vn 0.9997 -0.0187 0.0177
vn 0.9989 -0.0462 -0.0000
vn 0.6430 -0.0000 -0.7659
vn 0.6232 0.7820 -0.0000
vn -0.0000 0.7718 -0.6358
vn 0.9403 0.2626 -0.2163
vn 0.8471 -0.5315 -0.0000
vn 0.9403 0.2626 0.2163
vn 0.9419 -0.3358 -0.0000
vn 0.9419 0.3358 -0.0000
vn 0.9995 0.0313 -0.0000
vn 0.9993 -0.0292 0.0241
vn 0.9404 0.2626 -0.2163
vt 0.477583 0.147417
vt 0.522417 0.147417
vt 0.375000 0.500000
vt 0.625000 0.250000
vt 0.375000 0.250000
vt 0.375000 0.750000
vt 0.625000 0.500000
vt 0.375000 1.000000
vt 0.625000 0.750000
vt 0.125000 0.750000
vt 0.125000 0.500000
vt 0.875000 0.500000
vt 0.375000 0.000000
vt 0.432750 0.057750
vt 0.522417 0.057750
vt 0.625000 0.000000
vt 0.567250 0.102583
vt 0.567250 0.147417
vt 0.522417 0.192250
vt 0.477583 0.192250
vt 0.522417 0.102583
vt 0.567250 0.057750
vt 0.432750 0.102583
vt 0.477583 0.057750
vt 0.477583 0.102583
vt 0.432750 0.132472
vt 0.432750 0.192250
vt 0.432750 0.147417
vt 0.567250 0.192250
vt 0.432750 0.147417
vt 0.432750 0.117528
vt 0.625000 1.000000
vt 0.875000 0.750000
s 0
f 23/1/1 41/2/1 24/2/1
f 7/3/2 12/4/2 9/5/2
f 5/6/3 8/7/3 7/3/3
f 10/8/4 6/9/4 5/6/4
f 10/10/5 7/3/5 9/11/5
f 6/9/6 12/12/6 8/7/6
f 10/13/7 28/14/7 1/14/7
f 16/15/8 11/16/8 10/13/8
f 17/17/9 18/18/9 12/4/9
f 19/19/10 20/20/10 9/5/10
f 22/21/8 2/22/8 16/15/8
f 24/2/11 17/17/11 22/21/11
f 14/23/8 15/24/8 1/14/8
f 21/25/8 16/15/8 15/24/8
f 21/25/12 43/26/12 23/1/12
f 23/1/11 22/21/11 21/25/11
f 3/27/13 23/1/13 13/28/13
f 4/29/14 39/19/14 19/19/14
f 28/14/15 33/23/15 27/23/15
f 9/11/6 26/10/6 10/10/6
f 48/30/5 30/28/5 29/27/5
f 3/27/16 25/5/16 9/5/16
f 49/23/5 50/23/5 1/14/5
f 49/23/5 46/31/5 54/31/5
f 33/23/8 32/13/8 31/5/8
f 30/28/15 35/27/15 29/27/15
f 29/27/17 31/5/17 25/5/17
f 25/11/18 32/10/18 26/10/18
f 46/31/15 33/23/15 36/28/15
f 26/13/19 34/14/19 28/14/19
f 39/19/8 37/18/8 41/2/8
f 40/20/8 41/2/8 42/1/8
f 24/2/1 37/18/1 18/18/1
f 20/20/20 42/1/20 23/1/20
f 19/19/14 40/20/14 20/20/14
f 18/18/21 38/29/21 4/29/21
f 52/26/5 30/28/5 48/30/5
f 54/31/5 45/26/5 52/26/5
f 43/26/5 47/30/5 13/28/5
f 51/26/5 48/30/5 47/30/5
f 44/31/5 51/26/5 43/26/5
f 53/31/5 52/26/5 51/26/5
f 14/23/5 53/31/5 44/31/5
f 54/31/8 55/23/8 49/23/8
f 56/23/5 58/31/5 57/31/5
f 53/31/4 58/31/4 54/31/4
f 49/23/2 56/23/2 50/23/2
f 50/23/3 57/31/3 53/31/3
f 23/1/1 42/1/1 41/2/1
f 7/3/2 8/7/2 12/4/2
f 5/6/3 6/9/3 8/7/3
f 10/8/4 11/32/4 6/9/4
f 10/10/5 5/6/5 7/3/5
f 6/9/6 11/33/6 12/12/6
f 10/13/7 26/13/7 28/14/7
f 10/13/8 1/14/8 15/24/8
f 16/15/8 2/22/8 11/16/8
f 10/13/8 15/24/8 16/15/8
f 11/16/8 2/22/8 17/17/8
f 18/18/22 4/29/22 12/4/22
f 11/16/8 17/17/8 12/4/8
f 12/4/10 4/29/10 19/19/10
f 20/20/23 3/27/23 9/5/23
f 12/4/10 19/19/10 9/5/10
f 22/21/8 17/17/8 2/22/8
f 24/2/11 18/18/11 17/17/11
f 14/23/8 21/25/8 15/24/8
f 21/25/8 22/21/8 16/15/8
f 21/25/8 14/23/8 44/31/8
f 44/31/8 43/26/8 21/25/8
f 43/26/13 13/28/13 23/1/13
f 23/1/11 24/2/11 22/21/11
f 3/27/13 20/20/13 23/1/13
f 4/29/14 38/29/14 39/19/14
f 28/14/15 34/14/15 33/23/15
f 9/11/6 25/11/6 26/10/6
f 29/27/5 3/27/5 48/30/5
f 3/27/5 13/28/5 47/30/5
f 48/30/5 3/27/5 47/30/5
f 3/27/16 29/27/16 25/5/16
f 50/23/5 14/23/5 1/14/5
f 1/14/5 28/14/5 49/23/5
f 28/14/5 27/23/5 49/23/5
f 49/23/5 27/23/5 46/31/5
f 31/5/8 35/27/8 36/28/8
f 33/23/8 34/14/8 32/13/8
f 31/5/8 36/28/8 33/23/8
f 30/28/15 36/28/15 35/27/15
f 29/27/24 35/27/24 31/5/24
f 25/11/18 31/11/18 32/10/18
f 36/28/15 30/28/15 45/26/15
f 46/31/15 27/23/15 33/23/15
f 36/28/15 45/26/15 46/31/15
f 26/13/19 32/13/19 34/14/19
f 39/19/8 38/29/8 37/18/8
f 40/20/8 39/19/8 41/2/8
f 24/2/1 41/2/1 37/18/1
f 20/20/20 40/20/20 42/1/20
f 19/19/14 39/19/14 40/20/14
f 18/18/21 37/18/21 38/29/21
f 52/26/5 45/26/5 30/28/5
f 54/31/5 46/31/5 45/26/5
f 43/26/5 51/26/5 47/30/5
f 51/26/5 52/26/5 48/30/5
f 44/31/5 53/31/5 51/26/5
f 53/31/5 54/31/5 52/26/5
f 14/23/5 50/23/5 53/31/5
f 54/31/8 58/31/8 55/23/8
f 56/23/5 55/23/5 58/31/5
f 53/31/4 57/31/4 58/31/4
f 49/23/2 55/23/2 56/23/2
f 50/23/3 56/23/3 57/31/3
