# Blender 4.1.0
# www.blender.org
mtllib debug.mtl
o Grid
v -2.046884 0.000000 2.046884
v -0.682295 0.000000 2.046884
v 0.682295 0.000000 2.046884
v 2.046884 0.000000 2.046884
v 2.046884 1.083300 -0.417475
v 0.947114 1.083300 -0.417475
v -2.046884 1.083300 -0.417475
v -0.947114 1.083300 -0.417475
v 0.947114 1.083300 0.417475
v 2.046884 0.000000 0.417475
v -2.046884 0.000000 0.417475
v -0.947114 1.083300 0.417475
v -2.046884 0.000000 -2.046884
v -0.682295 0.000000 -4.335320
v 0.682295 0.000000 -4.335320
v 2.046884 0.000000 -2.046884
v -0.947114 0.000000 0.417475
v 0.947114 0.000000 0.417475
v -2.046884 0.000000 -0.417475
v -0.947114 0.000000 -0.417475
v 0.947114 0.000000 -0.417475
v 2.046884 0.000000 -0.417475
v -2.046884 1.570244 -0.417475
v -2.046884 1.570244 0.417475
v 0.947114 1.570244 0.417475
v 0.947114 1.570244 -0.417475
v 2.046884 1.570244 0.417475
v 2.046884 1.570244 -0.417475
v -0.947114 1.570244 -0.417475
v -0.947114 1.570244 0.417475
v -1.754624 1.570244 -0.125215
v -2.046884 1.570244 -0.417475
v -2.046884 1.570244 0.417475
v -1.754624 1.570244 0.125215
v 0.947114 1.570244 0.417475
v 1.239375 1.570244 0.125215
v 1.239375 1.570244 -0.125215
v 0.947114 1.570244 -0.417475
v 1.754624 1.570244 0.125215
v 2.046884 1.570244 0.417475
v 2.046884 1.570244 -0.417475
v 1.754624 1.570244 -0.125215
v -0.947114 1.570244 -0.417475
v -1.239375 1.570244 -0.125215
v -1.239375 1.570244 0.125215
v -0.947114 1.570244 0.417475
v -1.754624 2.403525 0.125215
v -1.754624 2.403525 -0.125215
v 0.947114 2.403525 0.417475
v 1.239375 2.403525 0.125215
v 1.239375 2.403525 -0.125215
v 0.947114 2.403525 -0.417475
v 1.754624 2.403525 -0.125215
v 1.754624 2.403525 0.125215
v -0.947114 2.403525 -0.417475
v -1.239375 2.403525 -0.125215
v -1.239375 2.403525 0.125215
v -0.947114 2.403525 0.417475
vn -0.0000 -0.0000 1.0000
vn -0.0000 1.0000 -0.0000
vn -1.0000 -0.0000 -0.0000
vn 1.0000 -0.0000 -0.0000
vn -0.0000 -0.0000 -1.0000
vn 0.7071 -0.0000 0.7071
vn -0.7071 -0.0000 0.7071
vn -0.7071 -0.0000 -0.7071
vn 0.7071 -0.0000 -0.7071
vt 1.000000 0.398022
vt 0.731355 0.398022
vt 0.333333 1.000000
vt 0.268645 0.398022
vt 0.000000 1.000000
vt 0.000000 0.601978
vt 0.268645 0.601978
vt 0.333333 0.000000
vt 0.666667 0.000000
vt 0.000000 0.000000
vt 0.268645 0.398022
vt 1.000000 0.601978
vt 0.000000 0.398022
vt 0.731355 0.601978
vt 1.000000 0.000000
vt 1.000000 1.000000
vt 0.666667 1.000000
vt 0.928608 0.469413
vt 0.928608 0.530587
vt 0.802747 0.469413
vt 0.071391 0.530587
vt 0.071392 0.469413
vt 0.197253 0.469413
vt 0.802747 0.530587
vt 0.197253 0.530587
s 0
f 10/1/1 9/2/1 18/2/1
f 18/2/2 14/3/2 17/4/2
f 14/3/2 13/5/2 19/6/2
f 19/6/2 20/7/2 14/3/2
f 18/2/2 17/4/2 2/8/2 3/9/2
f 11/10/3 7/10/3 19/10/3
f 32/6/2 29/7/2 23/6/2
f 40/1/2 25/2/2 27/1/2
f 43/7/2 30/11/2 29/7/2
f 41/12/2 27/1/2 28/12/2
f 46/11/2 24/13/2 30/11/2
f 38/14/2 28/12/2 26/14/2
f 35/2/2 26/14/2 25/2/2
f 33/13/2 23/6/2 24/13/2
f 22/10/4 5/10/4 10/10/4
f 10/1/2 18/2/2 3/9/2 4/15/2
f 16/16/2 15/17/2 14/3/2 22/12/2
f 23/10/3 7/10/3 11/10/3 24/10/3
f 11/13/2 1/10/2 2/8/2 17/4/2
f 17/4/2 14/3/2 20/7/2
f 21/14/2 14/3/2 18/2/2
f 22/12/2 14/3/2 21/14/2
f 26/14/3 6/14/3 9/2/3 25/2/3
f 6/14/3 21/14/3 18/2/3 9/2/3
f 12/11/4 17/4/4 20/7/4 8/7/4
f 17/4/1 12/11/1 11/13/1
f 5/12/5 22/12/5 21/14/5 6/14/5
f 8/7/5 20/7/5 19/6/5 7/6/5
f 28/12/5 5/12/5 6/14/5 26/14/5
f 32/6/2 43/7/2 29/7/2
f 40/1/2 35/2/2 25/2/2
f 27/10/4 10/10/4 5/10/4 28/10/4
f 24/13/1 11/13/1 12/11/1 30/11/1
f 25/2/1 9/2/1 10/1/1 27/1/1
f 29/7/5 8/7/5 7/6/5 23/6/5
f 30/11/4 12/11/4 8/7/4 29/7/4
f 54/18/4 39/18/4 42/19/4 53/19/4
f 49/2/6 35/2/6 36/20/6 50/20/6
f 31/21/2 32/6/2 33/13/2 34/22/2
f 43/7/2 46/11/2 30/11/2
f 41/12/2 40/1/2 27/1/2
f 46/11/2 33/13/2 24/13/2
f 38/14/2 41/12/2 28/12/2
f 35/2/2 38/14/2 26/14/2
f 57/23/7 45/23/7 46/11/7 58/11/7
f 39/18/2 40/1/2 41/12/2 42/19/2
f 52/14/3 38/14/3 35/2/3 49/2/3
f 38/14/2 37/24/2 42/19/2 41/12/2
f 32/6/2 31/21/2 44/25/2 43/7/2
f 40/1/2 39/18/2 36/20/2 35/2/2
f 46/11/2 45/23/2 34/22/2 33/13/2
f 48/21/2 47/22/2 57/23/2 56/25/2
f 33/13/2 32/6/2 23/6/2
f 53/19/2 51/24/2 50/20/2 54/18/2
f 49/2/2 50/20/2 51/24/2 52/14/2
f 55/7/2 56/25/2 57/23/2 58/11/2
f 56/25/5 44/25/5 31/21/5 48/21/5
f 58/11/4 46/11/4 43/7/4 55/7/4
f 47/22/1 34/22/1 45/23/1 57/23/1
f 55/7/8 43/7/8 44/25/8 56/25/8
f 53/19/5 42/19/5 37/24/5 51/24/5
f 51/24/9 37/24/9 38/14/9 52/14/9
f 50/20/1 36/20/1 39/18/1 54/18/1
f 48/21/3 31/21/3 34/22/3 47/22/3
